<svg xmlns="http://www.w3.org/2000/svg" xml:space="preserve" id="Layer_1" x="0" y="0" style="enable-background:new 0 0 235.4 265.1" version="1.1" viewBox="0 0 235.4 265.1"><style>.st0{fill:#d11216}.st1{fill:#000100}</style><g id="XMLID_2_"><path d="M147.9 44.3c5.5-.3 5.4-1.5 5.5-12.2.1-6.5 7.7-8.7 14.6-6.6 7.6 2.3 8 2.4 12.1 2.3 10.8-.3 9 2.8 7.7 5.2-3.3 6-8.1 17.4-12.3 25.2-3.3 6.2-12.5 3.4-15.2 4-2.6.5-.9 5.4.3 6.7 2 2.2 4.3-.1 8.8.6 1.2.2 4.6 1.2 6.1 5.3 1.9 5.2 1.3 18.7 5.9 38.1 5.3 22.5 17.9 22 17.1 24.9-1 3.8-16.7 5.1-33.5-25.1-6-10.8.4-11.5 4-13.8 2.5-1.7 6.3-2.8 1.8-7.5-1.3-1.3-31-9.3-25.4-15.8 2.7-3.2 5.2 5.7 11.3 2.5 1.8-1-.8-4.8-3.6-6.3-2.5-1.4-11.2-7.4-16.2-11.7-3.6-3.2-9.9-8.4-12.3-9.3-1.3-.5-1.4-4 .1-4.2 2.9-.3 8.7 0 8.4-3.1-.9-7.9-14.8-10.4-18.8-9.9-5.3.7-13.6 10.9-11.4-2.6.8-5.3 6.8-15 22.5-8.8 4.3 1.7 11.1 5.9 15.3 8.9 7.7 5.2.4 13.6 7.2 13.2zm10.2-5.7c-2.3 7.9-1 15.2 1.2 15.9 5 1.6 5.6-.9 6.7-5.3 1.1-4.5 10.3-10.9 7.5-14.4-2.8-3.4-13-4.1-15.4 3.8z" class="st0"/><path d="M173.5 34.9c2.8 3.5-6.4 9.9-7.5 14.4-1.1 4.5-1.7 7-6.7 5.3-2.2-.7-3.5-8-1.2-15.9 2.4-8 12.6-7.3 15.4-3.8z" class="st1"/><path d="M180.9 185.2c3.6 2.6 2.9 8.4-3.7 2.8-8.5-7.3-6.8-14.6-12.5-19-1.2-1-3.6-1-4.9.5-4-1.3-3.8-8.6-3.8-8.6h-.1c.8-13.9-.5-22.1-2.7-23-2.8-1.1-6.9-1.2-5.6-4.6.8-2.2 6.1-5.5 8.3-5.3 3 .2 3.3 3 8 8.3 5 5.6 8.5 8.4 8.8 21 .3 9.1 1.1 16 1.6 18 .7 1.8 3.9 7.9 6.6 9.9zM157.9 208.4c7.8 10.2 12.8 12.3 10.9 14.6-1.7 2-5.9 1-10.8-2.1-5-3-8.1-5.3-8.8-7.7-1.1-3.8-.1-5.2.3-8.9.1-1.2.3-2.3.5-3.6 3.1.7 5 1.4 6.1 1.9 0 1.9.4 4.1 1.8 5.8z" class="st0"/><path d="M159 173.6c-1.3-1.3-2.9-2.2-3.9-2.8.4-3.6.7-7 .9-10.1h.1s-.2 7.4 3.8 8.6c-.8 1-1.3 2.4-.9 4.3z" class="st0"/><path d="M154.7 174.3c.1-1.2.3-2.3.4-3.4 1 .5 2.6 1.5 3.9 2.8.2 1.1.7 2.3 1.5 3.8 2.3 4.1 5.6 8.7 7.9 12.9.6 1 3 5.8 3.1 6.1 2.5 4.5 3.3 9.3-2.7 8.6-3.3-.4-4.5-3.7-6.9-5.7-2.1-1.8-4.9-2.4-5.5-.4 0 .2-.1.4-.2.7-3.3-.5-4.6-3.2-5.1-4.9 1.1-4.8 2.4-11 3.6-20.5z" class="st0"/><path d="M156.2 199.7c.1-.3.1-.5.2-.7.6-2.1 3.4-1.5 5.5.4 2.4 2.1 3.6 5.4 6.9 5.7 6 .7 5.2-4.1 2.7-8.6-.1-.3-2.5-5-3.1-6.1-2.3-4.3-5.6-8.8-7.9-12.9-.8-1.5-1.3-2.7-1.5-3.8-.4-2 0-3.4.8-4.2 1.3-1.4 3.7-1.4 4.9-.5 5.6 4.4 4 11.8 12.5 19 6.6 5.6 7.3-.2 3.7-2.8-2.7-2-5.9-8.1-6.4-10.1s-1.4-8.9-1.6-18c-.4-12.6-3.8-15.3-8.8-21-4.7-5.3-5-8.1-8-8.3-2.2-.1-7.5 3.1-8.3 5.3-1.3 3.5 2.7 3.5 5.6 4.6 2.2.9 3.5 9 2.7 23-.2 3.1-.5 6.4-.9 10.1-.1 1.1-.3 2.2-.4 3.4-1.2 9.5-2.5 15.7-3.5 20.5-.5 2.2-.9 4.2-1.3 6-.2 1.2-.4 2.4-.5 3.6-.4 3.8-1.4 5.1-.3 8.9.7 2.4 3.8 4.7 8.8 7.7 5 3 9.2 4.1 10.8 2.1 1.9-2.4-3.1-4.4-10.9-14.6-1.3-1.7-1.7-3.9-1.8-5.8-.1-1.1 0-2.2.1-2.9zM119 48.3c2.3-.7 1.1-2.4 1.1-3.8 0-1.6 2.2-2.3 1.9-3.5-.5-1.8-3.2.6-5.7 2.2-2.1 1.3-1.9 6.5 2.7 5.1zm5.7-1.8c-1.4.2-1.4 3.7-.1 4.2 2.4.9 8.7 6.1 12.3 9.3 5 4.4 13.7 10.3 16.2 11.7 2.9 1.6 5.5 5.4 3.6 6.3-6.1 3.2-8.6-5.7-11.3-2.5-5.6 6.5 24.1 14.5 25.4 15.8 4.4 4.6.7 5.8-1.8 7.5-3.6 2.4-10 3.1-4 13.8 16.8 30.2 32.5 28.9 33.5 25.1.8-2.9-11.8-2.4-17.1-24.9-4.5-19.4-4-32.9-5.9-38.1-1.5-4-4.9-5.1-6.1-5.3-4.5-.7-6.8 1.6-8.8-.6-1.2-1.3-2.9-6.2-.3-6.7 2.6-.6 11.8 2.2 15.2-4 4.2-7.8 9-19.2 12.3-25.2 1.3-2.4 3.1-5.5-7.7-5.2-4.1.1-4.5 0-12.1-2.3-6.9-2.1-14.5.1-14.6 6.6-.2 10.6-.1 11.9-5.5 12.2-6.8.4.5-8-7.2-13.4-4.2-2.9-11-7.2-15.3-8.9-15.8-6.2-21.7 3.4-22.5 8.8-2.2 13.6 6.1 3.3 11.4 2.6 4-.5 17.9 2 18.8 9.9.4 3.3-5.5 3-8.4 3.3zM59.4 183.6s-2.7 6.3 2.9 6.9c4.4.5 2-6.5 1.3-7.4-.7-.9-3.3-1.2-4.2.5zm21.4 5.3c-2.5 1.6-5.3 4.8-8.3 6.8-2.6 1.6-5.4 2.4-8.3.4-2.8-1.9-5.6-.2-7.1 2.6-1 1.9-1.4 4.5-13.7 11.2-4.9 2.7-6 8 6.1 9.2 2.8.3 7.8 5 11.4 3 3.6-2 5.8-10.4 10.2-16.6 1.8-2.5 3.6-4.7 5.2-6.6 2.6-3 4.9-5 5.9-5.9.1-.1.3-.2.4-.3 1.6-1.2 5.6-.6 6.5 1.5 1.3 3.3-6.6 3-8.1 16.4-.8 6.9-1.6 21.3 6.1 20.5 2.6-.3 4-8.3 4.9-9.9.2-.4 1.9-5 7.2-13.2 3.6-5.5-2.5-13.2 1.4-13.6 2.1-.3 3.3.4 4 1.7.5.8.8 1.9 1 3.2.3 1.6.4 3.5.6 5.6.9 8.5 2.9 28.2 11.1 26.7 2.1-.4 4.4-2.6 5.2-6.6 1.2-5.7 4-7.5 6.3-11.1 3.7-5.7 1.9-13.3.9-15.1-2.9-5.8 2.4-5.4 3.1-7.2 1.8-4.2-.6-10.4-4.4-5.5-3 3.7-5 9.5-5.6 10.4-5 7.2-5.5 9.1-7.6 9.4-.9.2-3 .6-3.9-3.9-.3-1.4-1.1-3.3-2-5.3-.7-1.4-1.5-2.9-2.1-4.1-.8-1.5-1.6-2.7-1.9-3.2-1.6-2.5-2.6-4.7-2.9-5.5-1.5-4.3-7.4-2-9.4.7-1.8 2.3-5.2 1.6-10.6 3.2-.5.4-1 .7-1.6 1.1zM65.2 60.8c-4.1 1.9-5.2 4.6-5.2 5.6.1 2.3 6 3.5 8.9 1.3 1.9-1.4 5.9-4.8 8.8-4.6 3.3.2 4.2-1.5 6.1-2.6 6.5-3.5 12.3-4.7 15.9-.1 3 3.7 4.9 16.9 6.4 22.2.6 1.9 4.8 12 .4 14.3-4.4 2.3-2.6 6.3.4 6 4.1-.5 5.6-6 6-7.7 2.2-9.5-4.4-22.8-2-26.1 2.4-3.4 3.9-3.9 3.4-8.5-.6-5.6.8-9-3.3-10.2-3.4-1 1.6-6.2-2.8-6.3-11.7-.4-11.1-4.2-15.3-8.1-6.5-6.1-25.8-6.4-34.2.6-2.9 2.5-2.2 6.8-.3 6.9s5.5-1.1 7.7-3.7c2.1-2.6 13.2-4.3 14.6-2.2 1.3 2.2-.3 5.3-5.4 6-12.4 1.8-16 12.9-11.2 12.8 12.8-.4 13.5-1.6 13.7.8.3 1.8-6.6.9-12.6 3.6zM34.1 74.1c-10.9-6-7.7-10.8-11.2-8.7-3.4 2.1-1.8 12.6 5.9 22.2 5.6 7 17.3 10.5 21.7 11.3 4.4.8 13.8-2.6 14.8-6.3 1.6-5.7-2.5-6.6.3-9.4 1-.9 2.1-1.9 5.3-2.1 4.8-.3-.3 6.1 13.6 13.6 18.5 9.9 23.4-5 9.6-19-2.3-2.3-7.6-3.4-12.3-3-2.7.2-11.4 1.5-13.1 3.1-3.3 3.2-17.3 3.7-22.4 3.4-5-.3-8.5-3.1-12.2-5.1zm-9.3-21.8c2.9 22 24.8 23.3 28.7 21.4 5.4-2.7 3.5-23.5.1-29.4-5.4-9.5 3.1-16.4 4.3-16.6 11.1-2.4 11.9-1.1 21.8-2.2 8-.9 15.6-4 15.6-4s6-6.6 10.8-7.7c19.3-4.1 18.7 1.1 18.7 1.1s6.5 3.3 15.5 8.9c7.2 4.4 8.5.3 9-1.7s8.1-6.2 14.6-4.5c7.2 2 23 5.8 27.7 2.8 6.4-4 8.3-6.7 11.9-8.2 15.5-6.6 15.9 5.6 9.7 7-6.2 1.4-10.1 1.6-13.9 3.9S180.8 58 181.9 67c1.5 13.3 5.6 60.4 22.6 67.6 27.6 11.5 23.1 20 16.7 17.1-5-2.2-10.8-6-21.6-5.2-1.8.1-15.2-10.2-18.7-5.6s.1 29.4.1 29.4 1.3 12.1 11.1 19.8c14.5 11.4 23.2 19.9 22.6 23.5-1 6.9-13.5-8.7-28.8-15.1-9.9-4.1-8.1.6-6.7 1.9 5.2 4.9 13.9 7.6 17.3 11 19.9 19.8 6.4 17.1 5.1 17.2-.3 0-12.7-11.3-16.7-12.8-14.9-5.7-14.3.1-12.9.9 5.7 3.4 8.2 6.7 11.9 8.8 7.9 4.4 15.3 13.6 7.1 14.4-4 .4-6.2-4.3-8.1-6.1-3-2.8-12.8-3.1-10.6 1.1 2.2 4.2 7.6 14.6 7.7 18.7.3 8-5.7 10.1-8.8 4.6-1.3-2.2-5.1-10.2-12.1-18.5-7.7-8.9-16.4-14.8-19.5-14-9.3 2.3-5.8 30.3-15.5 30-4.6-.2-3.9-5.6-8.1-11.4-4.7-6.4-5.8-10.3-12.7-10.6-5.7-.2-6.6 17-11.6 17.4-5 .3-11-16.7-17.3-19.5-1.6-.7-3.2 1.2-5 4.3-1.5 2.7-2.5 6.1-6.6 6.3-4.1.2-5.6-4.5-8.9-7.8-4-4-9.1-7.4-11.2-7.4-11.4 0-18-1.4-18-1.4s-12.8 5.6-10.1-5.5c4.3-18-9.3-15.2-8.2-22.4 1.1-7.2 8.8-4.4 7.4-11.2-1.1-5.3 1.3-6 3.2-9.6.9-1.8 5.1-5.1 4.2-18.2-.2-2.8.9-5.1 3.4-11.3 1.6-3.9 7.1-9.1 5.2-10.4-15.3-10.5-20.7-18.6-14.9-21.6 3.1-1.6 13 4.1 23.9 2 10.3-2 14.4-14.8 9.1-14.7-35.9.5-35.6-42-32.6-51.2 3.1-9.1 8.8-4.1 9.5.8zm21 147.2c4-2.2 12.2-10.9 10-13-2.2-2.1-10.7 3.5-15.6 4.9-4.3 1.2-6.7-2.8-3.5-8.2 1.6-2.8 7.2-7.1 7-9.2-.3-2.2-7.6-1.1-10.9 0-3.3 1.1-8 4-9.4 6.3-1.1 1.7.4 2.1.4 4.7.1 4.9-6.2 8.7-5.5 12.6.8 5.1 7.1-1.3 12.1 2.7 1.7 1.5 13 .5 15.4-.8zm102-44.3c.2-1.1 1.6-7.9 1.1-10.6-.8-3.6-3.9-3.4-5.3-6.6-1-2.1-2.5-6.9-6.7-4-5.9 4.1 15.7 6.8 5.8 16.5-1 1-2.7 1.8-4.8 1.9-2.7.1-6.6-1.6-8.1 1.6-1.6 3.5 1.3 4.6 3 6.2 1.8 1.6 1.8 11.9 3.4 15.8 1.2 2.8 5.1 5.8 6.7 2.3.8-1.9-.1-4.9.6-9.3.4-3.5 3.5-9.2 4.3-13.8zm-8.4-49.1c2.1 3 8.2 1.3 4.7-3.7-1.2-1.7-4.9-7.2-8.5-7.7-3.7-.5-4.4-2.3-4.5-4-.3-3.8 6.3-3.3 8.2-2.5 5.1 2.1 5.6-2.6.1-7-1.5-1.2-3.8-3.6-6.4-5.9-4-3.6-5.6-4.7-5.8-6-.6-3.3-.5-2.8 2.7-4.1 4.9-2-8.7-15.5-9.9-8.6.3 6.1.3 8.3.6 10.9 1 8.8-2.5 3.7-.2 28.2.4 4.1-4.7 13.9-15.3 14.6-7.6.5-13.4-1.8-17.6-2.1-41.7-2.4-32 12.3-43.9 15.2-8.8 2.2-11.2.8-14.5.6-2.9-.3-9.8.7-3.3 4.6 8.4 5 16 5.7 22.5 3.7 6.9-2.2 12.9-12.3 19.5-13.8 4.3-.9 12.6-.9 12.7 2.5.2 6.1-.7 11.1 6 9.4 3.7-.9.1-2.9 7.4-4 11.2-1.7 19.2 11.9 24.2 13.3 2.7.8 6.1-2.3-2.3-9.1-3.4-2.8-3-5.4-3.3-8.7-.3-2.6 2.6-5 5.1-5 5.5-.1 3.8 3.3 12.8 5.6 6.5 1.6 8 .2 6.5-2.5-1.5-2.8-6.2-4.6-6.5-8.5-.4-5 .8-6.6.8-6.6s4.1-4.7 8.2 1.2zm-18 67c.7-3 2.4-6.4 1.4-13.2-1-6.8-6.8-13.4-10.7-12.7-5.3.9-3.9 7.2-3.5 8.1 1.5 3.3 2.4 7.2 1.6 10.7-.6 3.3-1.4 5.8.1 10.8 1.5 4.8.4 11.1 5.6 10.3 3.3-.5 2.5-4.7 4-8.2 1.5-3.5 1.2-4.6 1.5-5.8zm-15.5-29c1.4-2.2-1.8-4.5-4.7-4.1-3.4.5-2.1 5.8-6.6 5.7-4.3-.1-6.3 0-7.5 2.4-1 1.9-1.9 6.8-1.9 6.8S80.5 168.1 75 176c-4 5.7.6 7.2 4.3 5.2 0-.1 7.4-6 14.4-13.3 2.8-3 5.8-5.6 8-10.1s-.3-6.8 4.2-13.7zM73 101.2c3.1.9 4-1.3 2.6-2.4-1.3-1.1-1.3-1.1-2.5-1.3-1.8-.3-2.7 2.9-.1 3.7zM70.2 163c6.2-7.1 11.8-14.3 9.3-16.2-3.4-2.6-6.3-.5-15.2 0-5.6.3-6.3-.6-8.9-1.4-2.6-.8-12.2-.6-16.7 1.2-4.5 1.8-7.9 3.2-9.4 5.7-6.2 10.4-2.1 14.9 1.3 15.3 3.8.5 6.4-.1 11.3-1.2 3.7-.9 7.4-6.8 10.5-9.6 11-10.1 9.8.9 3.3 11.1-3.8 6 .3 7.7 2.7 5.8s6.7-4.8 11.8-10.7zm4.3-35.3c3.1-3.5-3.2-5.2-4.6-3-3.4 5.2-5.4 1.5-6.9 4.9-1.5 3.4 3.8 6.5 7.1 2.5.8-1 3.8-3.7 4.4-4.4z" class="st1"/><path d="M151.2 194.8c.5 1.7 1.8 4.4 5.1 4.9-.1.7-.2 1.8-.2 3-1.1-.5-3-1.1-6.1-1.9.3-1.8.7-3.8 1.2-6zM144.1 102.4c3.5 5-2.6 6.7-4.7 3.7-4.2-5.9-8.4-1.5-8.4-1.5s-1.2 1.6-.8 6.6c.3 3.9 5 5.7 6.5 8.5s0 4.2-6.5 2.5c-9-2.3-7.3-5.7-12.8-5.6-2.5 0-5.4 2.4-5.1 5 .3 3.3-.1 5.9 3.3 8.7 8.4 6.9 5 9.9 2.3 9.1-4.9-1.4-12.9-15-24.2-13.3-7.3 1.1-3.7 3.1-7.4 4-6.7 1.7-5.9-3.3-6-9.4-.1-3.4-8.4-3.4-12.7-2.5C61 119.6 55 129.7 48.1 132c-6.5 2.1-14 1.4-22.5-3.7-6.5-3.9.5-4.8 3.3-4.6 3.3.3 5.7 1.6 14.5-.6 11.9-2.9 2.2-17.6 43.9-15.2 4.2.3 10 2.6 17.6 2.1 10.6-.7 15.7-10.5 15.3-14.6-2.3-24.5 1.3-19.3.2-28.2-.3-2.7-.3-4.8-.6-10.9 1.2-6.8 14.8 6.6 9.9 8.6-3.2 1.3-3.3.8-2.7 4.1.2 1.2 1.8 2.4 5.8 6 2.6 2.3 4.9 4.7 6.4 5.9 5.5 4.4 5 9.1-.1 7-1.9-.8-8.5-1.3-8.2 2.5.1 1.7.8 3.5 4.5 4 3.8.8 7.5 6.3 8.7 8zM148.8 144.6c.6 2.7-.9 9.6-1.1 10.6-.8 4.6-3.8 10.3-4.4 13.8-.7 4.3.2 7.4-.6 9.3-1.5 3.5-5.5.4-6.7-2.3-1.6-3.9-1.6-14.2-3.4-15.8-1.7-1.6-4.6-2.7-3-6.2 1.5-3.3 5.4-1.5 8.1-1.6 2.1-.1 3.8-.8 4.8-1.9 9.9-9.7-11.6-12.4-5.8-16.5 4.2-2.9 5.7 1.9 6.7 4 1.5 3.2 4.6 2.9 5.4 6.6z" class="st0"/><path d="M122 41c.3 1.2-1.9 1.9-1.9 3.5 0 1.4 1.2 3-1.1 3.8-4.6 1.4-4.8-3.8-2.7-5.1 2.5-1.6 5.2-4 5.7-2.2z" style="fill:#e9dc32"/><path d="M128.6 186.2c3.9-4.9 6.3 1.3 4.4 5.5-.7 1.7-6.1 1.4-3.1 7.2.9 1.8 2.7 9.4-.9 15.1-2.3 3.6-5.1 5.4-6.3 11.1-.8 4-3.1 6.2-5.2 6.6-8.3 1.5-10.2-18.2-11.1-26.7-.2-2-.3-3.9-.6-5.6.5-.7 1.8-2.5 3.8-2.4.9 1.9 1.7 3.9 2 5.3.9 4.6 3 4.1 3.9 3.9 2.2-.4 2.6-2.2 7.6-9.4.5-1.1 2.5-6.9 5.5-10.6zM111.1 50.4c4.1 1.2 2.7 4.6 3.3 10.2.5 4.6-1 5.2-3.4 8.5-2.4 3.4 4.2 16.6 2 26.1-.4 1.7-1.9 7.2-6 7.7-2.9.3-4.7-3.7-.4-6 4.4-2.3.2-12.5-.4-14.3-1.6-5.3-3.5-18.4-6.4-22.2-3.6-4.6-9.4-3.4-15.9.1-1.9 1-2.8 2.8-6.1 2.6-2.8-.2-6.9 3.2-8.8 4.6-2.9 2.2-8.8 1.1-8.9-1.3 0-1 1.1-3.7 5.2-5.6 6-2.8 12.9-1.8 12.8-3.7-.1-2.4-.9-1.2-13.7-.8-4.8.1-1.2-10.9 11.2-12.8 5-.7 6.7-3.8 5.4-6-1.3-2.2-12.4-.4-14.6 2.2-2.1 2.6-5.7 3.8-7.7 3.7s-2.7-4.4.2-6.9c8.3-7 27.6-6.7 34.2-.6 4.1 3.9 3.6 7.7 15.3 8.1 4.3.2-.6 5.4 2.7 6.4zM122.7 159.9c1 6.8-.7 10.2-1.4 13.2-.3 1.2 0 2.3-1.5 5.9-1.4 3.5-.7 7.7-4 8.2-5.2.8-4-5.5-5.6-10.3-1.6-5-.8-7.5-.1-10.8.7-3.6-.1-7.4-1.6-10.7-.5-1-1.9-7.3 3.5-8.1 3.9-.7 9.7 5.8 10.7 12.6zM101.2 140c2.9-.4 6.2 1.9 4.7 4.1-4.6 6.9-2 9.2-4.3 13.7s-5.3 7.1-8 10.1c-6.9 7.4-14.4 13.3-14.4 13.3-3.7 2.1-8.4.5-4.3-5.2 5.6-7.9 10.2-21.1 10.2-21.1s1-4.9 1.9-6.8c1.2-2.4 3.2-2.5 7.5-2.4 4.6.1 3.3-5.2 6.7-5.7z" class="st0"/><path d="M107.3 192.8c.7 1.2 1.4 2.7 2.1 4.1-1.9 0-3.3 1.7-3.8 2.4-.2-1.3-.5-2.4-1-3.2 2.7.7 2.7-2.9 2.7-3.3z" class="st0"/><path d="M94.1 75.7c13.8 14 8.9 28.9-9.6 19-13.9-7.4-8.8-13.9-13.6-13.6-3.2.2-4.4 1.2-5.3 2.1-2.8 2.8 1.3 3.7-.3 9.4-1.1 3.7-10.4 7.1-14.8 6.3-4.4-.8-16.1-4.3-21.7-11.3-7.7-9.6-9.2-20.1-5.9-22.2 3.4-2.1.3 2.7 11.2 8.7 3.6 2 7.1 4.8 12.2 5.1 5.1.3 19.1-.2 22.4-3.4 1.7-1.6 10.3-2.9 13.1-3.1 4.7-.4 10 .6 12.3 3z" style="fill:#e63534"/><path d="M75.7 98.8c1.3 1.1.4 3.3-2.6 2.4-2.6-.8-1.7-4 .1-3.7 1.2.2 1.1.2 2.5 1.3zM79.5 146.8c2.5 2-3.1 9.2-9.3 16.2-5.1 5.8-9.5 8.9-11.9 10.7s-6.5.2-2.7-5.8c6.5-10.2 7.7-21.2-3.3-11.1-3.1 2.8-6.8 8.8-10.5 9.6-4.9 1.1-7.5 1.7-11.3 1.2-3.3-.5-7.5-5-1.3-15.3 1.5-2.5 4.9-3.9 9.4-5.7 4.4-1.8 14-2 16.7-1.2 2.6.8 3.4 1.7 8.9 1.4 9-.5 11.9-2.6 15.3 0zM82.5 188.1c5.4-1.6 8.8-.9 10.6-3.2 2.1-2.7 8-5.1 9.4-.7.3.8 1.3 3 2.9 5.5.4.5 1.1 1.7 1.9 3.2 0 .4 0 4-2.6 3.3-.7-1.3-2-1.9-4-1.7-4 .5 2.2 8.2-1.4 13.6-5.4 8.2-7 12.8-7.2 13.2-.9 1.6-2.4 9.7-4.9 9.9-7.7.8-6.9-13.7-6.1-20.5 1.5-13.4 9.4-13.1 8.1-16.4-.9-2.1-4.9-2.7-6.5-1.5-.1.1-.2.2-.4.3-2.2-1.6-2.1-3-1.3-4.1.4-.5.9-.8 1.5-.9z" class="st0"/><path d="M80.8 188.9c-.7 1.1-.8 2.5 1.3 4.1-1.1.9-3.3 3-5.9 5.9-.4-1.8-2.3-2.6-3.7-3.3 3-1.9 5.8-5.1 8.3-6.7zM69.9 124.7c1.5-2.2 7.7-.5 4.6 3-.6.7-3.6 3.4-4.4 4.4-3.3 4-8.6.9-7.1-2.5s3.5.3 6.9-4.9z" class="st0"/><path d="M72.5 195.6c1.4.7 3.3 1.5 3.7 3.3-1.6 1.9-3.4 4.1-5.2 6.6-4.4 6.2-6.6 14.6-10.2 16.6-3.6 2-8.6-2.8-11.4-3-12.1-1.2-11.1-6.5-6.1-9.2 12.4-6.7 12.7-9.3 13.7-11.2 1.5-2.9 4.3-4.5 7.1-2.6 3 1.9 5.8 1.2 8.4-.5zM63.6 183.1c.7.9 3.1 7.9-1.3 7.4-5.6-.6-2.9-6.9-2.9-6.9.9-1.7 3.5-1.4 4.2-.5zM55.7 186.5c2.2 2.1-6 10.8-10 13-2.4 1.3-13.7 2.3-15.5.8-5-4-11.3 2.4-12.1-2.7-.6-3.9 5.6-7.7 5.5-12.6 0-2.6-1.4-2.9-.4-4.7 1.4-2.3 6.1-5.2 9.4-6.3 3.3-1.1 10.7-2.2 10.9 0 .3 2.1-5.3 6.4-7 9.2-3.2 5.5-.8 9.4 3.5 8.2 5.1-1.3 13.5-7 15.7-4.9z" class="st0"/></g></svg>